<?xml version="1.0" standalone="no"?>
<!DOCTYPE svg PUBLIC "-//W3C//DTD SVG 20010904//EN"
 "http://www.w3.org/TR/2001/REC-SVG-20010904/DTD/svg10.dtd">
<svg version="1.0" xmlns="http://www.w3.org/2000/svg"
 width="413.000000pt" height="138.000000pt" viewBox="0 0 413.000000 138.000000"
 preserveAspectRatio="xMidYMid meet">

<g transform="translate(0.000000,138.000000) scale(0.100000,-0.100000)"
fill="#000000" stroke="none">
<path d="M2643 1065 c-23 -16 -23 -18 -23 -285 l0 -270 25 -16 c33 -21 83 -11
90 19 3 12 6 51 7 87 l3 65 65 -83 c66 -83 95 -102 158 -102 46 0 36 29 -42
119 -42 49 -76 93 -76 98 0 4 34 45 75 91 41 45 75 87 75 92 0 15 -103 12
-125 -4 -11 -8 -42 -41 -70 -75 -27 -33 -53 -61 -57 -61 -5 0 -8 69 -8 153 0
83 -4 158 -8 164 -13 21 -65 26 -89 8z"/>
<path d="M433 1063 c-23 -2 -47 -11 -54 -19 -9 -12 -12 -79 -10 -277 2 -233 4
-263 19 -275 20 -16 81 -9 94 10 4 7 8 55 8 106 l0 92 40 0 c52 0 72 -21 100
-104 28 -85 46 -106 96 -113 67 -9 71 8 30 117 -19 51 -45 104 -58 118 -19 20
-20 26 -8 30 31 11 79 70 89 110 22 80 -16 157 -91 187 -43 17 -176 27 -255
18z m180 -104 c14 -6 30 -22 36 -36 33 -73 -21 -133 -120 -133 l-39 0 0 90 0
90 50 0 c27 0 60 -5 73 -11z"/>
<path d="M1371 916 c-7 -8 -11 -37 -9 -68 l3 -53 53 -3 c31 -2 60 2 68 9 19
16 18 93 -2 113 -20 20 -97 21 -113 2z"/>
<path d="M945 882 c-76 -36 -115 -103 -115 -194 1 -130 85 -208 223 -208 104
0 151 27 125 73 -7 14 -21 15 -88 10 -78 -6 -79 -6 -109 25 -57 56 -47 62 98
62 151 0 157 3 148 81 -12 101 -74 158 -180 166 -47 3 -72 -1 -102 -15z m144
-79 c11 -10 24 -33 27 -50 l7 -33 -87 0 c-85 0 -86 0 -86 25 0 61 90 98 139
58z"/>
<path d="M1850 889 c-14 -6 -35 -20 -47 -31 -13 -12 -24 -20 -25 -17 -2 2 -8
13 -14 24 -7 12 -24 21 -43 23 -59 6 -61 -1 -61 -204 0 -171 1 -184 19 -194
30 -16 59 -12 81 10 18 18 20 33 20 128 0 120 17 166 65 178 35 9 75 -19 76
-54 13 -261 12 -256 41 -266 18 -7 35 -6 53 2 l25 12 0 145 c0 166 -10 203
-62 235 -35 21 -87 25 -128 9z"/>
<path d="M2245 882 c-76 -36 -115 -103 -115 -194 1 -130 85 -208 223 -208 104
0 151 27 125 73 -7 14 -21 15 -88 10 -78 -6 -79 -6 -109 25 -57 56 -47 62 98
62 151 0 157 3 148 81 -12 101 -74 158 -180 166 -47 3 -72 -1 -102 -15z m144
-79 c11 -10 24 -33 27 -50 l7 -33 -87 0 c-85 0 -86 0 -86 25 0 61 90 98 139
58z"/>
<path d="M3155 882 c-75 -36 -115 -103 -115 -192 0 -130 83 -210 218 -210 109
0 156 27 130 73 -7 14 -21 15 -88 10 -78 -6 -79 -6 -109 25 -57 56 -47 62 98
62 151 0 157 3 148 81 -12 101 -74 158 -180 166 -47 3 -72 -1 -102 -15z m144
-79 c11 -10 24 -33 27 -50 l7 -33 -87 0 c-85 0 -86 0 -86 25 0 61 90 98 139
58z"/>
<path d="M3487 883 c-14 -13 -6 -42 63 -221 l69 -182 -30 -71 c-17 -39 -28
-77 -25 -85 8 -21 89 -18 108 4 23 26 211 530 204 547 -7 20 -89 20 -105 1 -7
-8 -30 -72 -51 -141 -22 -70 -41 -130 -44 -132 -3 -3 -9 12 -15 33 -6 22 -21
81 -35 132 -14 52 -30 100 -37 108 -12 14 -90 20 -102 7z"/>
<path d="M1372 618 c-7 -7 -12 -36 -12 -65 0 -41 4 -54 19 -63 28 -15 73 -12
99 6 27 19 31 93 6 118 -18 19 -94 22 -112 4z"/>
</g>
</svg>
